<svg width="204" height="95" viewBox="0 0 204 95" fill="none" xmlns="http://www.w3.org/2000/svg">
<g clip-path="url(#clip0_45_331)">
<path d="M204 32.2793V37.367C203.777 37.4095 203.554 37.4945 203.325 37.4945H191.992C190.653 37.2024 189.315 37.2024 188.269 37.4945H182.894C182.007 37.6379 181.258 37.6379 180.361 37.7866H180.068C180.068 37.7866 179.909 37.7866 179.76 37.7866H174.1C173.951 37.6379 173.807 37.6379 173.648 37.6379H172.612C172.161 37.6379 171.71 37.6379 171.258 37.7866C171.109 37.9619 171.109 37.9619 170.966 37.7866C170.966 37.7866 170.966 37.7866 170.817 37.7866C166.946 37.7866 163.659 37.7866 160.977 37.9619C160.977 37.7866 160.977 37.9619 160.833 37.7866H158.443C157.54 37.7866 156.653 37.6379 155.91 37.7866H155.761C155.602 37.7866 155.458 37.6379 155.166 37.6379H153.52C153.52 37.7866 153.52 37.7866 153.52 37.9619C153.376 37.9619 153.217 37.9619 153.217 37.9619C153.217 37.7866 153.217 37.7866 153.217 37.7866C152.468 37.6379 151.73 37.7866 150.987 37.7866V37.9619C150.987 37.9619 150.843 37.9619 150.684 37.9619C150.684 37.9619 150.536 37.9619 150.392 37.9619V37.7866C150.244 37.7866 150.244 37.7866 150.084 37.7866C149.94 37.7866 149.792 37.7866 149.792 37.7866C149.792 37.9619 149.792 37.9619 149.792 37.9619H149.049C149.197 37.9619 149.197 37.9619 149.197 37.7866C146.515 37.7866 143.982 37.7866 141.289 37.9619H133.397C130.699 36.9108 129.218 37.9619 127.279 37.9619C126.976 38.1058 126.684 38.1058 126.376 37.9619C126.084 38.1058 125.776 38.1058 125.489 38.2486H123.986C123.842 38.2486 123.842 38.2486 123.7 38.2486C123.248 38.5407 122.956 38.5407 122.499 38.1053H120.258C120.258 38.1053 120.258 38.1053 120.258 38.2486H119.823V38.1053H117.13C109.382 38.1053 103.269 38.2486 99.0891 38.2486C97.4587 37.9619 96.1145 38.1053 94.9196 38.2486C94.1655 38.2486 93.73 38.2486 93.73 38.2486L93.5653 38.3926H93.1304C92.9705 38.5407 92.6784 38.3926 92.535 38.5407H91.792C91.484 38.8328 91.1919 38.8328 90.5971 38.3926H88.3559C88.3559 38.5407 88.3559 38.5407 88.3559 38.69C88.2072 38.69 88.0633 38.69 88.0633 38.69C88.0633 38.5413 88.0633 38.5413 88.0633 38.3926C87.3038 38.3926 86.5603 38.3926 85.8227 38.5407C85.8227 38.5407 85.8227 38.5407 85.8227 38.6894C85.8227 38.6894 85.8226 38.6894 85.6734 38.5407H85.222C85.0786 38.5407 85.0786 38.5407 84.9352 38.5407C84.7706 38.5407 84.7706 38.5407 84.7706 38.5407H82.8374C82.386 38.3926 82.0939 38.3926 81.7859 38.2486H80.7503C80.3042 38.2486 80.0121 38.3926 79.5606 38.3926C79.4119 38.5407 79.2526 38.69 79.1092 38.3926C78.8171 38.5407 78.5091 38.5407 78.3657 38.5407C75.0889 38.5407 72.2476 38.5407 69.8577 38.6894C69.5709 38.5407 69.2629 38.5407 69.1195 38.5407H67.1811C65.5347 38.2486 64.3398 38.3926 63.1448 38.5407H57.7862C57.0427 38.6894 56.1451 38.6894 55.4016 38.8328C55.2529 38.8328 55.1095 38.8328 55.1095 38.8328H49.1412C48.9925 38.6894 48.6898 38.6894 48.5411 38.6894H47.4948C47.0594 38.6894 46.6079 38.6894 46.1512 38.8328C46.1512 38.9768 46.0078 38.9768 45.8644 38.8328C45.7051 38.8328 45.7051 38.8328 45.7051 38.8328C41.9769 38.8328 38.5514 38.9768 36.0181 38.9768C35.8747 38.9768 35.8747 38.9768 35.8747 38.9768H33.9203C33.7769 38.9768 33.7769 38.9768 33.7769 38.9768C32.7413 38.69 31.6951 38.69 30.7923 38.8328C30.7923 38.8328 30.7923 38.8328 30.6436 38.8328H28.5617C28.4183 38.8328 28.4183 38.8328 28.4183 38.9768C28.259 38.9768 28.259 38.9768 28.1103 38.9768C28.1103 38.8328 28.1103 38.8328 28.1103 38.8328H26.0284V38.9768C25.8691 38.9768 25.7257 38.9768 25.7257 38.9768C25.577 38.9768 25.4336 38.9768 25.4336 38.9768V38.8328H24.9822C24.8335 38.8328 24.8335 38.8328 24.6901 38.8328C24.6901 38.9768 24.6901 38.9768 24.6901 38.9768H24.5308C24.3821 38.9768 24.2387 38.9768 24.0953 39.152C24.0953 38.9768 24.0953 38.9768 24.2387 38.8328H24.0953C19.6076 38.9768 15.1359 38.9768 10.8129 38.9768H10.3774C10.2181 38.9768 10.2181 38.9768 10.2181 38.9768H8.2796C5.59763 37.9624 4.25929 38.9768 2.32084 39.152H1.41799C0.987816 39.2954 0.430178 39.3007 0 39.3007V34.1168C3.64324 34.2767 7.27585 34.3346 10.9563 34.0531C10.8129 34.2283 10.8129 34.2283 10.6642 34.377C11.1156 34.0531 11.413 34.0531 11.8591 33.9097C12.7513 33.9097 13.6542 33.9097 14.5411 33.7658C14.6845 33.7658 14.6845 33.7658 14.8438 33.7658C16.0387 33.7658 17.2337 34.0525 18.2693 33.7658H29.5973C30.0487 33.7658 30.5002 33.7658 31.095 33.6224C35.4233 33.9092 39.7463 34.0525 44.2181 33.6224C44.2181 33.7658 44.0747 33.7658 43.926 33.9092C44.3615 33.7652 44.8129 33.6224 45.105 33.6224C46.6079 33.4737 48.0897 33.4737 49.428 33.4737H51.5258C51.6745 33.4737 51.6745 33.4737 51.6745 33.4737C59.4177 33.6224 66.7307 34.8125 74.4898 33.3303H76.1203C75.9769 33.4737 75.9769 33.4737 75.8335 33.6224C76.1203 33.4737 76.4283 33.4737 76.8797 33.3303H79.1103C79.8538 33.1816 80.6079 33.1816 81.4948 33.1816H83.4333C83.7413 33.1816 84.0329 33.0382 84.479 33.1816C85.0797 33.0382 85.9666 33.0382 86.5609 33.0382C93.2791 33.3303 99.8438 34.052 106.541 33.0382H108.787C108.787 33.0382 108.787 33.0382 108.787 32.8895H109.382C109.382 32.9851 109.323 33.0754 109.238 33.1338C109.604 33.0382 109.87 33.0169 110.125 32.8895H111.771V33.0382C111.915 33.0382 111.915 33.0382 112.064 33.0382V32.8895C112.207 32.8895 112.366 32.8895 112.366 32.8895C113.109 32.7142 113.997 32.7142 114.756 32.7142C115.499 32.7142 116.094 32.8895 116.689 32.7142C116.838 32.7142 116.981 32.7142 116.981 32.7142C123.37 32.8895 129.632 33.4684 136.021 33.0435C135.894 33.0754 135.772 33.1975 135.772 33.3303C136.079 33.0382 136.526 33.0382 136.967 32.8895C137.864 32.7142 138.756 32.8895 139.659 32.7142C139.803 32.7142 139.803 32.5703 139.951 32.5703C141.14 32.7142 142.335 33.0382 143.228 32.7142H144.274C146.951 32.7142 150.084 32.7142 153.52 32.5703H154.715C155.167 32.7142 155.602 32.7142 156.202 32.5703C160.525 32.8895 164.848 32.8895 169.326 32.5703C169.177 32.7142 169.177 32.7142 169.028 32.8895C169.484 32.5703 169.771 32.5703 170.223 32.4221H176.628C176.777 32.4221 176.777 32.4221 176.936 32.2782C184.541 32.5703 191.849 33.6218 199.597 32.2782H204V32.2793Z" fill="#D8AD77"/>
<path d="M204 41.0958V47.6334C203.777 47.6387 203.554 47.6706 203.325 47.8034H194.817C194.673 47.8034 194.382 47.8034 194.222 47.6281H191.992C190.653 47.4794 189.315 47.4794 188.269 47.8034H182.894C182.007 47.8034 181.258 47.9468 180.361 48.0955H180.068C180.068 48.0955 179.909 48.0955 179.76 48.0955H178.565C178.422 48.0955 178.13 47.9468 177.971 48.0955C177.678 47.9468 177.376 47.9468 177.084 48.0955H174.099C173.951 47.9468 173.807 47.9468 173.647 47.9468C173.207 47.8034 172.905 47.8034 172.612 47.8034C172.16 47.9468 171.71 47.9468 171.258 47.9468C171.109 48.0955 171.109 48.2388 170.966 48.0955C170.966 48.0955 170.966 48.0955 170.817 48.0955H160.977C160.977 48.0955 160.977 48.0955 160.833 48.0955H158.443C157.54 47.9468 156.653 47.8034 155.91 47.9468C155.761 47.9468 155.761 47.9468 155.761 47.9468H153.52C153.52 48.0955 153.52 48.0955 153.52 48.2389C153.376 48.2389 153.217 48.2389 153.217 48.2389C153.217 48.0955 153.217 48.0955 153.217 47.9468C152.468 47.9468 151.73 47.9468 150.987 48.0955C150.987 48.0955 150.987 48.0955 150.987 48.2389C150.987 48.2389 150.843 48.2389 150.684 48.2389C150.684 48.2389 150.536 48.2389 150.392 48.2389C150.392 48.0955 150.392 48.0955 150.392 48.0955C150.244 48.0955 150.244 48.0955 150.084 48.0955C149.94 48.0955 149.792 48.0955 149.792 48.0955C149.792 48.0955 149.792 48.0955 149.792 48.2389H149.049C149.197 48.2389 149.197 48.2388 149.197 48.0955H140.546C138.464 48.2388 136.218 48.2389 134.284 48.2389H133.397C130.699 47.1926 129.218 48.0955 127.279 48.2389C126.976 48.2389 126.684 48.3828 126.376 48.2389C126.084 48.3828 125.776 48.3828 125.489 48.3828H123.986C123.842 48.3828 123.842 48.3828 123.7 48.3828C123.248 48.8236 122.956 48.8236 122.499 48.3828H120.258C120.258 48.3828 120.258 48.3828 120.258 48.5315H119.823V48.3828H117.13C109.382 48.3828 103.269 48.5315 99.0891 48.5315C97.4587 48.096 96.1145 48.3828 94.9196 48.5315C94.1655 48.5315 93.73 48.5315 93.73 48.5315L93.5653 48.6797H93.1304C92.9705 48.6797 92.6784 48.6796 92.535 48.8236C92.2275 48.8236 92.0836 48.6797 91.792 48.6797C91.484 49.1417 91.1919 49.1417 90.5971 48.6797H88.3559C88.3559 48.8236 88.3559 48.8236 88.3559 48.8236C88.2072 48.8236 88.0633 48.8236 88.0633 48.8236V48.6791H85.8227C85.8227 48.823 85.8227 48.823 85.8227 48.823C85.8227 48.823 85.8226 48.823 85.6734 48.823H85.222C85.0786 48.823 85.0786 48.823 84.9352 48.823C84.7706 48.823 84.7706 48.823 84.7706 48.823H82.8374C82.386 48.6791 82.0939 48.6791 81.7859 48.5309H80.7503C80.3042 48.5309 80.0121 48.5309 79.5606 48.6791C79.4119 48.823 79.2526 48.823 79.1092 48.6791C78.8171 48.6791 78.5091 48.823 78.3657 48.823H69.8577C69.5709 48.823 69.2629 48.823 69.1195 48.6791C68.8274 48.6791 68.376 48.823 68.068 48.823H67.1811C65.5347 48.5309 64.3398 48.5309 63.1448 48.823H57.7862C57.0427 48.823 56.1451 48.9717 55.4016 49.1417C55.2529 49.1417 55.1095 49.1417 55.1095 49.1417H49.1412C48.9925 48.9723 48.6898 48.9723 48.5411 48.9723C48.2384 48.9723 47.7976 48.9723 47.4948 48.8236C47.0594 48.9723 46.6079 48.9723 46.1512 48.9723C46.1512 49.2909 46.0078 49.2909 45.8644 49.1417C45.7051 49.1417 45.7051 49.1417 45.7051 49.1417C41.9769 49.1417 38.5514 49.1417 36.0181 49.2904C35.8747 49.1417 35.8747 49.1417 35.8747 49.1417H33.9203C33.7769 49.1417 33.7769 49.1417 33.7769 49.1417C32.7413 48.9723 31.6951 48.823 30.7923 48.9723H30.6436C30.5002 49.1417 30.3515 48.9723 30.1921 48.9723H28.5617C28.4183 49.1417 28.4183 49.1417 28.4183 49.2909C28.259 49.2909 28.259 49.2909 28.1103 49.2909C28.1103 49.1422 28.1103 49.1422 28.1103 48.9723C27.3668 48.9723 26.6286 49.1417 26.0284 49.1417V49.2904C25.8691 49.2904 25.7257 49.2904 25.7257 49.2904C25.577 49.2904 25.4336 49.2904 25.4336 49.2904V49.1417H24.9822C24.8335 49.1417 24.8335 49.1417 24.6901 49.1417C24.6901 49.2904 24.6901 49.2904 24.6901 49.2904H24.0953C24.0953 49.2904 24.0953 49.2904 24.2387 49.1417H24.0953C19.6076 49.1417 15.1359 49.2904 10.8129 49.2904H10.3774C10.2181 49.2904 10.2181 49.2904 10.2181 49.2904H8.2796C5.59763 48.2388 4.25929 49.1417 2.32084 49.2904C2.01812 49.2904 1.72602 49.4338 1.41799 49.2904C0.987816 49.4279 0.424867 49.4333 0 49.566V42.9859C2.65011 42.9647 5.85255 42.9328 9.47454 42.8855H10.0694C12.1512 42.2695 13.6542 43.6073 15.5873 42.8855H17.9772C18.1206 42.8855 18.1206 42.8855 18.2693 42.8855H19.3155C19.7669 42.5616 20.2024 42.5616 20.5105 42.5616H24.9822C24.9822 42.5616 25.4336 42.5616 26.1771 42.5616C27.2234 42.8855 28.259 43.0289 29.3052 42.705H29.9053C37.0537 42.705 44.6695 42.5616 52.5614 42.5616C52.8694 42.4176 53.0128 42.4176 53.3155 42.4176C53.9157 42.5616 54.5105 42.5616 55.1106 42.5616V41.9774C55.1106 41.9774 55.1106 41.9774 55.254 41.9774C55.8541 41.9774 56.4489 42.1255 57.0437 42.1255L56.8844 42.4176C56.8844 42.4176 58.0794 42.4176 60.0178 42.2695C60.1771 42.4176 60.3205 42.4176 60.4692 42.4176C60.4692 42.4176 60.6126 42.4176 60.7773 42.4176H74.7819C75.3821 42.2695 75.8335 42.2695 76.4283 42.2695C77.6232 42.2695 78.8182 42.4176 80.1565 42.1255H82.8385C83.2846 42.2695 83.7413 42.2695 84.3362 42.2695H93.8744C97.4592 42.2695 101.623 42.1255 105.51 41.9774H108.044C110.434 41.9774 112.808 42.2695 115.049 42.2695C115.049 42.2695 114.905 42.2695 114.905 42.1255C114.905 42.1255 114.905 41.9774 114.905 41.8334H116.981L116.689 41.9774C116.689 41.9774 123.7 41.9774 134.577 41.8334H135.171C137.269 41.2174 138.608 42.561 140.689 41.8334H144.418C144.726 41.6847 144.874 41.6847 145.018 41.6847C146.207 41.6847 147.26 41.8334 148.305 41.8334V41.3661C148.597 41.5148 149.049 41.5148 149.484 41.5148H150.084V41.6842C150.084 41.6842 150.536 41.6842 151.439 41.5148C152.326 41.8334 153.377 41.9768 154.408 41.6842H155.008C162.172 41.6842 169.772 41.5148 177.537 41.5148C177.829 41.3661 178.131 41.3661 178.275 41.3661C179.018 41.3661 179.475 41.5148 180.07 41.5148V40.9306C180.214 40.9306 180.214 40.9306 180.214 40.9306C181.106 40.9306 181.86 40.9306 182.752 41.0745C182.896 41.2179 183.199 41.2179 183.347 41.2179C183.799 41.2179 184.085 41.2179 184.542 41.0745C184.828 41.2179 185.136 41.2179 185.429 41.3666C185.588 41.3666 185.588 41.3666 185.731 41.3666H199.9C200.34 41.2179 200.787 41.2179 201.387 41.2179C202.253 41.1483 203.118 41.1112 204 41.0958Z" fill="#D8AD77"/>
<path d="M204 51.3558V56.8897H203.469C203.469 56.8897 203.469 56.8897 203.325 56.8897C203.177 56.7463 202.874 56.7463 202.582 56.7463C202.279 56.6024 202.13 56.6024 201.838 56.6024C200.936 56.7463 200.192 56.7463 199.146 56.7463H198.706C198.706 56.8897 198.706 56.8897 198.706 56.8897H197.808C197.808 56.7463 197.808 56.7463 197.659 56.7463H197.51C197.356 56.7463 197.207 56.7463 197.207 56.8897H193.931C194.079 56.7463 194.079 56.6029 194.223 56.6029H190.208C189.751 56.6029 189.459 56.6029 189.156 56.7468C186.474 57.3257 183.638 55.844 182.295 56.8902C182.008 56.7468 181.7 56.8902 181.408 56.8902H180.664C179.167 56.4287 177.972 56.6034 176.628 56.8902H167.53C165.449 57.4696 162.623 56.1361 160.233 57.0341H152.182C151.136 56.8902 150.244 56.8902 149.649 57.0341C149.197 57.0341 148.889 57.1828 148.597 57.1828C147.116 56.7473 145.613 56.8902 144.274 57.3262H143.079C142.485 57.0341 141.89 56.8907 141.29 57.1828C140.854 57.3262 140.546 57.3262 140.095 57.3262C136.674 57.4701 133.541 57.3262 130.248 57.1828H128.475C125.777 57.1828 122.956 57.3262 120.258 57.3262C119.228 57.1828 118.176 57.1828 117.582 57.4701H115.197C113.854 57.1834 112.659 57.3262 111.464 57.6183C110.869 57.4701 110.126 57.6183 109.531 57.6183C109.238 57.4701 108.787 57.4701 108.479 57.6183H101.187C101.187 57.6183 101.187 57.6183 101.187 57.4701C99.5406 57.4701 97.8947 57.4701 96.2638 57.6183C96.1151 57.6183 95.9557 57.4701 95.8123 57.4701C95.6636 57.4701 95.3604 57.6183 95.2122 57.6183H89.5509C87.6124 56.7473 85.966 57.1834 84.1763 57.6183C80.8995 57.6183 78.3662 57.7936 76.8792 57.7936C75.5249 57.7936 74.638 57.7936 74.638 57.7936H73.7511C73.7511 57.9375 73.7511 57.9375 73.7511 57.9375H72.6996V57.7936C72.5562 57.7936 72.5562 57.7936 72.3968 57.7936C72.2481 57.7936 72.2481 57.9375 72.1048 57.9375H68.9714C68.9714 57.7936 69.1201 57.7936 69.1201 57.6183H65.0998C64.7917 57.7936 64.5049 57.7936 64.0535 57.7936C61.5149 58.3783 58.6789 57.0341 57.3353 57.9375H55.5455C54.2072 57.4701 52.8689 57.6183 51.5252 57.9375C48.8326 57.9375 46.2994 57.9375 43.6174 58.0857H42.4278C40.4893 58.5212 37.648 57.1834 35.1147 58.0857H27.064C26.0284 58.0857 25.2849 57.9375 24.5308 58.2344H21.8488C21.7054 58.2344 21.7054 58.2344 21.5567 58.3783H19.0128C17.2337 57.6183 15.736 57.9375 14.1056 58.3783C11.1156 58.3783 8.1309 58.3783 5.1462 58.2344H4.09997C2.75102 58.2344 1.38082 58.2556 0 58.2928V53.2687C2.65011 53.2475 5.85255 53.2103 9.47454 53.1625H10.0694C12.1512 52.5518 13.6542 53.8901 15.5873 53.1625H17.9772C18.1206 53.1625 18.1206 53.1625 18.2693 53.1625H19.3155C19.7669 52.8704 20.2024 52.8704 20.5105 52.6952H22.9003C23.3358 52.8704 23.7873 52.8704 24.3821 52.8704H24.9822C24.9822 52.8704 25.4336 52.8704 26.1771 52.8704C27.2234 53.1625 28.259 53.3112 29.3052 53.0186H29.9053C37.0537 53.0186 44.6695 52.8704 52.5614 52.8704C52.8694 52.6952 53.0128 52.6952 53.3155 52.6952C53.9157 52.6952 54.5105 52.8704 55.1106 52.8704C55.1106 52.8704 55.1106 52.8704 55.1106 52.6952V52.2586C55.1106 52.2586 55.1106 52.2586 55.254 52.2586C55.8541 52.2586 56.4489 52.2586 57.0437 52.4025L56.8844 52.5507C56.8844 52.5507 58.0794 52.5507 60.0178 52.5507C60.1771 52.5507 60.3205 52.5507 60.4692 52.6946C60.4692 52.6946 60.6126 52.6946 60.7773 52.6946H74.7819C75.3821 52.5507 75.8335 52.5507 76.4283 52.4025C77.6232 52.4025 78.8182 52.6946 80.1565 52.4025H82.8385C83.2846 52.4025 83.7413 52.4025 84.3362 52.5507H84.9363C87.6129 52.5507 90.1462 52.4025 92.6795 52.4025H93.8744C97.4592 52.4025 101.623 52.4025 105.51 52.2586H108.044C110.434 52.1099 112.808 52.4025 115.049 52.5507C115.049 52.4025 114.905 52.4025 114.905 52.4025C114.905 52.2586 114.905 52.2586 114.905 52.1099H116.981L116.689 52.2586C116.689 52.2586 123.7 52.2586 134.577 52.1099H135.171C137.269 51.531 138.608 52.8699 140.689 52.1099C140.998 52.1099 141.141 52.1099 141.432 51.9665C142.033 52.1099 142.627 51.9665 143.382 51.9665C143.679 52.1099 144.274 51.9665 144.417 51.9665C144.725 51.9665 144.874 51.9665 145.017 51.8226C146.207 51.9665 147.259 52.1094 148.305 52.1094C148.305 52.1094 148.305 52.1094 148.305 51.966C148.305 51.966 148.305 51.8221 148.305 51.6739C148.597 51.8221 149.048 51.6739 149.484 51.8221H150.084C150.084 51.8221 150.536 51.8221 151.439 51.8221C152.326 52.1089 153.377 52.2576 154.407 51.966H155.008C162.172 51.8221 169.772 51.8221 177.536 51.6739H178.274C179.018 51.6739 179.618 51.8221 180.213 51.8221C180.213 51.8221 180.213 51.6739 180.069 51.6739V51.2119C180.213 51.2119 180.213 51.2119 180.213 51.2119C181.105 51.2119 181.859 51.2119 182.751 51.3552H184.541C184.827 51.5305 185.135 51.5305 185.428 51.5305C185.587 51.6744 185.587 51.6744 185.73 51.6744H198.853C199.145 51.6744 199.597 51.5305 199.9 51.5305C200.34 51.5305 200.787 51.5305 201.387 51.3552L204 51.3558Z" fill="#D8AD77"/>
<path d="M204 60.9211V67.172H203.469C203.469 67.172 203.469 67.172 203.325 67.172C203.177 67.0233 202.874 67.0233 202.582 66.8799H198.705C198.853 67.0233 198.705 67.0233 198.705 67.172H197.808C197.808 67.0233 197.808 67.0233 197.659 66.8799H197.51C197.356 67.0233 197.207 67.0233 197.207 67.172H193.931C194.079 67.0233 194.079 66.8799 194.223 66.8799H189.156C186.474 67.6075 183.638 66.1205 182.295 67.0233H180.664C179.167 66.7312 177.972 66.7312 176.628 67.172H167.53C165.449 67.7828 162.623 66.4444 160.233 67.172C160.074 67.3159 159.782 67.3159 159.639 67.3159H152.182C151.136 67.172 150.244 67.172 149.649 67.3159H148.597C147.116 67.0233 145.613 67.172 144.274 67.4641H143.079C142.485 67.3159 141.89 67.172 141.29 67.4641H140.095C136.674 67.608 133.541 67.4641 130.248 67.4641C129.956 67.3159 129.51 67.3159 129.218 67.3159H128.475C125.777 67.4641 122.957 67.4641 120.259 67.608C119.229 67.4641 118.177 67.4641 117.583 67.7833H115.198C113.854 67.4641 112.659 67.4641 111.464 67.7833H108.48C107.593 67.9315 106.542 67.9315 105.654 67.9315H101.189C101.189 67.7833 101.189 67.7833 101.189 67.7833H95.2138C93.5669 67.7833 92.0852 67.9315 90.4394 67.9315H89.5525C87.614 67.0233 85.9676 67.4641 84.1779 67.9315H76.8808C75.5265 67.9315 74.6396 67.9315 74.6396 67.9315V68.0754H74.1882C74.0395 67.9315 73.8961 67.9315 73.7527 67.9315C73.7527 68.0754 73.7527 68.0754 73.7527 68.2241H72.7012C72.7012 68.0754 72.7012 68.0754 72.7012 67.9315C72.5578 67.9315 72.5578 67.9315 72.3984 67.9315C72.2497 68.0754 72.2497 68.0754 72.1063 68.2241H68.9729C68.9729 68.0754 69.1216 67.9315 69.1216 67.9315H64.0551C61.5165 68.659 58.6805 67.172 57.3369 68.0754C56.8855 68.0754 56.5934 68.2241 56.2907 68.2241H55.5471C54.2088 67.7833 52.8705 67.9315 51.5268 68.2241H42.4283C40.4898 68.803 37.6486 67.4641 35.1153 68.3622H27.064C26.0284 68.2241 25.2849 68.2241 24.5308 68.3622H23.0437C22.741 68.3622 22.3002 68.5109 21.8488 68.5109C21.7054 68.5109 21.7054 68.5109 21.5567 68.5109C20.6592 68.5109 19.7669 68.659 19.0128 68.659C17.2337 67.9315 15.736 68.2241 14.1056 68.5109C11.1156 68.659 8.1309 68.5109 5.1462 68.5109H4.09997C2.75102 68.5109 1.38082 68.5321 0 68.564V62.4724C1.1259 62.3503 2.24649 62.2122 3.35645 62.1007H5.74633C5.88972 62.1007 5.88972 62.2494 6.04905 62.2494C7.08466 62.5415 8.2796 62.7167 9.77726 62.7167C10.0694 62.5415 10.3774 62.5415 10.8129 62.5415C11.413 62.3976 12.0078 62.3976 12.6026 62.2494C12.7513 62.2494 12.7513 62.2494 12.7513 62.2494H13.7976C16.1821 62.8596 19.1721 62.3976 21.9975 61.9568H23.3358C25.8691 62.3976 28.5617 62.3976 31.095 62.2494H33.3255C35.4233 62.3976 37.3565 62.3976 39.2949 62.3976H40.4898C42.2796 62.8596 44.5102 62.5415 46.8947 62.2494H47.9463C48.9925 61.9568 49.8794 61.8139 50.7823 61.8139H56.741C59.2743 62.1007 61.8076 61.9573 64.3408 61.8139H66.7307C68.6692 61.9573 70.6023 61.9573 72.7001 61.9573H73.7516C75.6848 62.3981 77.9153 62.1012 80.1565 61.8139C80.1565 61.8139 80.1565 61.8139 80.3052 61.8139H81.2027C81.7869 61.6652 82.3871 61.6652 82.9819 61.5218H86.1148C88.0638 61.6652 89.8382 61.6652 91.6332 61.5218C93.1309 61.6652 94.6179 61.6652 96.1151 61.5218C96.2638 61.5218 96.4077 61.5218 96.4077 61.5218H98.4895C100.587 61.6652 102.526 61.6652 104.464 61.6652H104.608C105.351 61.8139 105.946 61.9573 106.849 61.9573C107.141 61.9573 107.444 61.9573 107.884 61.8139C108.187 61.8139 108.479 61.8139 108.787 61.6652C110.274 61.6652 111.915 61.6652 113.562 61.3465H114.162C114.162 61.3465 114.162 61.3465 114.305 61.3465H115.049C118.92 62.1007 122.792 61.5218 126.685 61.1978H127.88V61.0544H130.848C131.157 61.0544 131.603 61.0544 131.9 61.1978C133.833 61.1978 135.772 61.3465 137.864 61.1978C138.607 61.3465 139.351 61.5218 140.094 61.5218H141.14C141.432 61.3465 141.74 61.3465 142.033 61.3465C143.679 61.3465 145.32 61.1978 146.951 60.9111H147.407C147.407 60.9111 147.407 60.9111 147.551 60.9111H148.597C151.136 61.3465 153.521 61.3465 156.054 61.055C156.505 61.055 156.946 61.1984 157.397 61.1984H158.444C160.382 61.1984 162.464 61.3471 164.402 61.3471C164.705 61.3471 165.157 61.3471 165.449 61.1984C167.387 61.6657 169.629 61.5223 171.854 61.1984H173.049C173.952 60.7682 174.987 60.7682 175.89 60.7682H187.218C188.865 60.9116 190.655 60.9116 192.45 60.7682C194.224 60.9116 196.014 60.9116 197.66 60.9116H198.707C200.282 61.2658 202.157 61.1384 204 60.9211Z" fill="#D8AD77"/>
<path d="M204 71.2024V75.9343C200.989 75.9503 197.818 75.9667 194.531 75.9667C193.628 75.6741 192.592 75.8228 191.689 75.9667H190.802C190.494 75.9667 190.346 75.9667 190.059 75.8228C190.059 75.9667 190.059 75.9667 190.208 75.9667C187.217 76.1101 184.233 76.1101 181.104 76.1101H180.212C177.536 76.2588 174.694 76.2588 171.71 76.2588C169.628 76.2588 167.386 76.2588 165.156 76.4341H163.961C161.863 76.4341 159.638 76.4341 157.699 76.2588H157.248C156.504 75.9667 155.601 76.1101 154.858 76.2588C154.406 76.2588 153.971 76.4341 153.519 76.4341C153.217 76.2588 152.925 76.2588 152.617 75.9667C152.776 76.1101 152.925 76.2588 153.068 76.4341C142.484 76.4341 132.494 76.5775 123.55 76.5775H119.972C119.664 76.5775 119.52 76.5775 119.371 76.4341L119.52 76.5775C116.094 76.7262 112.807 76.7262 109.982 76.7262H108.638C107.443 76.8696 107.443 76.8696 106.397 76.7262H105.202C104.464 76.7262 104.007 76.8696 103.269 76.8696C103.269 76.7262 103.269 76.7262 103.269 76.7262H103.12V76.8696H102.525V76.7262C101.187 76.8696 99.5406 76.8696 97.7455 76.8696C96.2638 75.6746 94.166 77.7724 92.679 76.2594C92.8277 76.4346 93.131 76.7267 93.2791 76.8696C85.674 76.8696 75.525 77.0183 64.0536 77.1622C63.1454 76.7267 62.2585 77.0183 61.2123 77.1622H60.4687C60.1766 77.1622 59.7252 77.0183 59.4172 76.7267C59.5818 76.8701 59.7252 77.0188 59.8686 77.1622H56.1457C55.997 77.1622 55.997 77.1622 55.8536 77.1622H55.2535C52.5609 77.3104 49.5921 77.3104 46.6075 77.3104C44.5097 77.4543 42.2791 77.4543 40.1973 77.4543H38.843C36.7612 77.4543 34.6793 77.4543 32.5815 77.3104H32.146C31.3866 77.0183 30.4997 77.3104 29.5968 77.4543H28.5612C28.1098 77.3104 27.823 77.3104 27.515 77.0188C27.6584 77.1627 27.823 77.3109 27.9664 77.4543C18.1307 77.4543 8.56059 77.6083 -0.000488281 77.6296V72.6846C1.12541 72.5784 2.246 72.4669 3.35596 72.3872H5.74584C5.88923 72.3872 5.88923 72.3872 6.04856 72.3872C7.08417 72.8546 8.27911 72.9927 9.77677 72.8546H10.8124C11.4125 72.5306 12.0073 72.7059 12.6021 72.5306C12.7508 72.5306 12.7508 72.5306 12.7508 72.5306H13.7971C16.1816 73.1414 19.1716 72.7059 21.997 72.2385H23.3353C25.8686 72.7059 28.5612 72.7059 31.0945 72.3872H32.4328C32.7408 72.5306 33.0329 72.5306 33.325 72.5306C35.4228 72.5306 37.356 72.7059 39.2944 72.7059C39.7458 72.7059 40.0379 72.5306 40.4894 72.5306C42.2791 72.9927 44.5097 72.8546 46.8942 72.5306C47.2023 72.5306 47.6537 72.5306 47.9458 72.3872C48.992 72.0951 49.8789 72.0951 50.7818 72.0951H56.7405C59.2738 72.3872 61.8071 72.2385 64.3403 72.0951H66.7302C68.6687 72.2385 70.6018 72.2385 72.6996 72.2385H73.7512C75.6843 72.7059 77.9149 72.3872 80.156 72.0951C80.156 72.0951 80.156 72.0951 80.3047 72.0951H81.2023C81.7865 71.8025 82.3866 71.9464 82.9814 71.8025H86.1143C88.0633 71.9464 89.8377 71.9464 91.6328 71.8025C93.1304 71.8025 94.6175 71.8025 96.1146 71.6591C96.2633 71.6591 96.4072 71.6591 96.4072 71.6591C96.8586 71.8025 97.1502 71.8025 97.6021 71.8025H98.4891C100.586 71.9464 102.525 71.9464 104.464 71.9464H104.607C105.351 71.9464 105.946 72.2385 106.848 72.2385C107.141 72.2385 107.443 72.0951 107.884 72.0951C108.187 71.9464 108.479 72.0951 108.787 71.9464C110.274 71.9464 111.915 71.8025 113.561 71.6597H114.161C114.161 71.6597 114.161 71.6597 114.305 71.6597C114.449 71.511 114.757 71.511 115.048 71.511C118.92 72.2385 122.791 71.803 126.684 71.511H127.879C127.879 71.3357 127.879 71.3357 127.879 71.3357H131.9C133.833 71.5109 135.771 71.511 137.863 71.511C138.607 71.6597 139.35 71.803 140.094 71.803C140.402 71.803 140.853 71.6597 141.14 71.6597H142.032C143.679 71.511 145.32 71.5109 146.95 71.1923H147.407C147.407 71.1923 147.407 71.1923 147.551 71.1923H148.597C151.135 71.6597 153.521 71.5109 156.053 71.3357H157.397C157.848 71.5109 158.135 71.511 158.443 71.511C160.382 71.511 162.463 71.6597 164.402 71.511H165.449C167.387 71.9464 169.628 71.803 171.854 71.511H172.013C172.305 71.511 172.613 71.5109 173.048 71.3357C173.951 71.0436 174.987 71.0436 175.89 71.0436H176.342C179.911 71.0436 183.49 71.0436 187.218 70.9002C188.865 71.1923 190.654 71.1923 192.45 71.0436C194.223 71.0436 196.013 71.1923 197.659 71.1923C198.111 71.1923 198.403 71.0436 198.706 71.0436C200.288 71.5428 202.157 71.4254 204 71.2024Z" fill="#D8AD77"/>
<path d="M204 79.695V86.1477C200.989 86.1742 197.818 86.2055 194.531 86.248C193.628 85.8125 192.592 86.1046 191.689 86.248H190.802C190.494 86.248 190.213 86.1046 189.905 85.9613C189.937 85.9936 190.075 86.1206 190.208 86.248C187.217 86.248 184.233 86.4233 181.104 86.4233H180.212C177.536 86.4233 174.694 86.5672 171.71 86.5672H165.156C165.156 86.5672 165.156 86.5672 165.156 86.7154H163.961V86.5672H157.248C156.504 86.248 155.601 86.4233 154.858 86.5672H153.068C142.484 86.7154 132.494 86.7154 123.55 86.8593H119.972C119.664 86.8593 119.52 86.8593 119.371 86.7154L119.52 86.8593C116.094 86.8593 112.807 87.0027 109.982 87.0027H108.638C107.443 87.1514 107.443 87.1514 106.397 87.0027H97.7455C96.2638 85.9565 94.166 87.9055 92.679 86.5677L93.2791 87.1519C85.674 87.1519 75.525 87.2953 64.0536 87.2953C63.1454 87.0032 62.2585 87.2953 61.2123 87.444H60.4687C60.1766 87.2953 59.7252 87.2953 59.4172 87.0032C59.5818 87.1519 59.7252 87.2953 59.8686 87.444H56.1457C55.997 87.444 55.997 87.444 55.8536 87.444H55.2535C52.5609 87.444 49.5921 87.614 46.6075 87.614C44.5097 87.614 42.2791 87.614 40.1973 87.7627H38.843V87.614C36.7612 87.7627 34.6793 87.614 32.5815 87.614H32.146C31.3866 87.2948 30.4997 87.444 29.5968 87.614C29.3047 87.614 28.8533 87.7627 28.5612 87.7627C28.1098 87.614 27.823 87.614 27.515 87.2948L27.9664 87.7627C18.1307 87.7627 8.56059 87.8896 -0.000488281 87.9061V81.634C4.98108 81.5803 18.768 81.4375 35.5662 81.182H36.6178C45.1045 81.182 54.51 81.0333 63.7455 81.0333H64.6484C65.6999 81.0333 66.5868 80.8899 67.325 80.8899H68.9714C69.4228 80.7412 69.5715 80.7412 69.8583 80.7412V80.8899C73.2997 80.7412 76.7199 80.7412 80.3047 80.7412V80.8899H82.9814L82.838 80.7412H83.8842C83.8842 80.7412 83.8842 80.7412 83.8842 80.8899C87.9046 80.7412 91.7921 80.7412 95.3604 80.7412V80.5978H96.2633C96.2633 80.3057 96.5554 80.157 96.6988 80.5978H96.8581C96.8581 80.5978 96.8581 80.5978 96.8581 80.7412C107.14 80.5978 115.935 80.5978 121.761 80.4491H123.099C123.099 80.4491 127.12 80.4491 133.833 80.4491C140.546 80.4491 150.084 80.3057 160.668 80.157C160.668 80.157 160.668 80.157 160.524 79.9818H161.576C161.576 80.157 161.576 80.157 161.576 80.157C170.222 80.157 179.473 79.9818 188.863 79.9818H189.75C190.653 79.9818 191.54 79.8379 192.283 79.8379H193.93C193.93 79.6945 193.93 79.6945 193.93 79.6945H204V79.695Z" fill="#D8AD77"/>
<path d="M204 89.9768V94.3157H0V91.7665C4.98688 91.7182 18.7738 91.6014 35.5667 91.4898C35.5667 91.4898 35.5667 91.4898 35.5667 91.3464H36.6182C36.6182 91.4898 36.6182 91.4898 36.6182 91.4898C45.105 91.4898 54.5105 91.3464 63.746 91.3464C64.054 91.3464 64.3408 91.1653 64.6489 91.3464C65.7004 91.3464 66.5873 91.1653 67.3255 91.0273H80.3052C80.4486 91.1653 80.7513 91.1653 80.9 91.1653C81.6436 91.1653 82.2384 91.0273 82.9819 91.0273H95.3615C95.3615 90.8785 95.3615 90.8785 95.3615 90.8785H96.2643L96.1156 91.0273C106.705 90.8785 115.793 90.8785 121.762 90.7352H123.101C123.101 90.7352 127.121 90.7352 133.834 90.5865C140.547 90.5865 150.085 90.5864 160.669 90.4431C160.669 90.4431 160.669 90.2944 160.525 90.2944H161.577V90.4431C170.223 90.2944 179.474 90.2944 188.864 90.151H189.751C190.654 90.151 191.541 90.151 192.284 89.9757H204V89.9768Z" fill="#D8AD77"/>
<path d="M39.3533 3.77281C39.7526 3.27784 40.1717 2.72498 40.6103 2.1153C41.125 1.37284 41.553 1.00108 41.8966 1.00108C42.2774 1.00108 42.5254 1.09668 42.6391 1.28628C42.7533 1.47694 42.8489 2.0675 42.9253 3.05904L43.4968 11.9754L43.5536 13.1183C43.5536 13.8809 43.2488 14.2612 42.6386 14.2612C42.2381 14.2612 41.9147 13.9468 41.6667 13.3185C40.8855 11.2988 39.476 9.05551 37.4472 6.58756C35.4132 4.12067 32.8555 2.88643 29.764 2.88643C27.4729 2.88643 25.5525 3.54923 23.9949 4.87269C22.4425 6.19721 21.2327 8.01139 20.3617 10.3174C19.4944 12.6233 19.0611 15.3855 19.0611 18.6049C19.0611 24.1117 20.2704 28.4889 22.6905 31.7381C25.1154 34.9867 28.1256 36.6113 31.7312 36.6113C35.6373 36.6113 39.2242 34.2485 42.4824 29.5235C42.8775 28.952 43.2583 28.6658 43.6163 28.6658C44.2212 28.6658 44.526 28.9706 44.526 29.5808C44.526 30.8379 43.0252 32.839 40.024 35.5826C37.0229 38.3262 33.2649 39.6985 28.7491 39.6985C22.7675 39.6985 18.0414 37.8504 14.574 34.1535C11.1065 30.4577 9.37305 25.9132 9.37305 20.5205C9.37305 15.1476 11.1208 10.4852 14.6218 6.53073C18.1227 2.57787 22.5381 0.600647 27.8776 0.600647C31.6361 0.600647 35.4615 1.6575 39.3533 3.77281Z" fill="#0C0F1A"/>
<path d="M61.4739 36.1833C60.2923 37.3065 59.1016 38.1499 57.9013 38.7123C56.7 39.2747 55.4907 39.5557 54.2708 39.5557C52.3281 39.5557 50.8273 38.9693 49.7699 37.7972C48.712 36.6209 48.1841 35.1971 48.1841 33.5151C48.1841 32.2198 48.5027 31.0567 49.1416 30.0381C49.7741 29.0131 50.566 28.2229 51.5087 27.6604C52.4476 27.098 54 26.422 56.1721 25.6407C57.9959 24.9923 59.2152 24.483 59.8345 24.1064C60.4537 23.7352 60.9683 23.1924 61.3874 22.4781C61.8064 21.7638 62.0162 20.8392 62.0162 19.7011C62.0162 18.4483 61.7018 17.4472 61.0783 16.7005C60.4484 15.9527 59.5865 15.5762 58.4861 15.5762C57.5391 15.5762 56.8668 15.8136 56.4663 16.291C56.0712 16.7817 55.7664 17.5667 55.5566 18.6485C55.119 20.8111 53.9469 21.8918 52.0413 21.8918C51.2601 21.8918 50.5931 21.6634 50.0402 21.2062C49.4884 20.7489 49.2112 20.0909 49.2112 19.2343C49.2112 17.4047 50.207 16.0371 52.1985 15.1327C54.1891 14.2272 56.5667 13.7747 59.3289 13.7747C61.7103 13.7747 63.6493 14.1369 65.1448 14.8608C66.6403 15.5847 67.5979 16.4227 68.0169 17.376C68.4359 18.3282 68.6457 19.8147 68.6457 21.8345L68.5889 28.6079C68.5889 32.1709 68.7084 34.4573 68.9468 35.4674C69.1842 36.4764 69.6946 36.982 70.4758 36.982C70.59 36.982 70.7424 36.9725 70.9331 36.9528C71.3139 36.9156 71.5709 36.896 71.7047 36.896C72.486 36.896 72.8758 37.1159 72.8758 37.5535C72.8758 37.8397 72.7138 38.0824 72.3904 38.2827C72.0669 38.4829 71.0897 38.7351 69.4609 39.04C67.8315 39.3448 66.3594 39.4972 65.0455 39.4972C63.73 39.4972 62.8298 39.2492 62.3444 38.7495C61.859 38.2497 61.5695 37.3926 61.4739 36.1833ZM61.8457 24.7225C61.3884 25.2796 60.2928 26.013 58.5588 26.9275C56.9778 27.7709 55.9199 28.5134 55.3866 29.1661C54.8534 29.8331 54.5858 30.7954 54.5858 32.0578C54.5858 33.3962 54.8667 34.4105 55.4291 35.1105C55.9916 35.8067 56.682 36.1541 57.5014 36.1541C58.6061 36.1541 59.6353 35.6448 60.5886 34.6198C61.5408 33.6011 62.0167 31.8002 62.0167 29.2229C62.0167 28.4183 61.9599 26.9185 61.8457 24.7225Z" fill="#0C0F1A"/>
<path d="M85.9955 14.2617C87.1581 14.2049 88.9393 14.1768 91.3404 14.1768C92.4264 14.1768 93.3213 14.2724 94.0271 14.4619C93.7409 15.8911 93.4886 16.6537 93.2687 16.7483C93.0499 16.8439 90.6255 17.025 85.9955 17.2916L85.6811 29.8953C85.6811 31.6855 85.7714 33.001 85.953 33.8391C86.1336 34.6771 86.5484 35.3824 87.1958 35.9539C87.8442 36.5253 88.6823 36.8116 89.711 36.8116C90.5873 36.8116 91.8353 36.3447 93.4557 35.4111C93.7026 35.2773 93.9119 35.2109 94.0845 35.2109C94.4467 35.2109 94.6267 35.4005 94.6267 35.7823C94.6267 36.3341 93.855 37.0872 92.3117 38.0394C90.7694 38.9927 88.959 39.4686 86.8814 39.4686C84.424 39.4686 82.4946 38.8679 81.0941 37.6677C79.6937 36.4674 78.9937 33.9336 78.9937 30.0657C78.9937 25.7985 79.0697 21.5392 79.2221 17.2905C77.3362 17.2905 76.0021 17.2427 75.2214 17.1471C74.4407 17.0515 74.0493 16.7759 74.0493 16.3181C74.0493 15.9373 74.4976 15.6325 75.3924 15.403C77.1641 15.0037 78.7499 14.2798 80.1515 13.2309C81.5519 12.1831 82.7469 10.5165 83.7374 8.23021C84.1378 7.29656 84.4097 6.72936 84.5526 6.52915C84.6954 6.32893 84.8999 6.22961 85.1665 6.22961C85.7194 6.22961 85.9955 6.68688 85.9955 7.60087V14.2617Z" fill="#0C0F1A"/>
<path d="M107.858 13.7758C107.935 16.4434 107.973 21.1977 107.973 28.0375L107.887 34.1822C107.887 35.4206 108.092 36.2497 108.501 36.6687C108.91 37.0877 109.583 37.3639 110.516 37.4977C111.584 37.6316 112.117 37.9353 112.117 38.4128C112.117 38.9274 111.698 39.1844 110.86 39.1844C110.459 39.1844 109.764 39.1552 108.773 39.0984C106.678 38.9646 104.601 38.8982 102.544 38.8982C101.535 38.8982 100.505 38.9513 99.4575 39.0602C98.8277 39.1409 98.3996 39.1844 98.1713 39.1844C97.3332 39.1844 96.9131 38.9274 96.9131 38.4128C96.9131 37.9167 97.466 37.6215 98.5717 37.5259C100.039 37.3931 100.858 36.9024 101.029 36.0548C101.2 35.2061 101.286 33.4864 101.286 30.8953C101.286 27.542 101.234 24.4601 101.129 21.6502C101.024 18.8391 100.829 17.2347 100.543 16.8343C100.257 16.4339 99.5138 16.1673 98.3141 16.0345C97.3794 15.9389 96.9126 15.6622 96.9126 15.2055C96.9126 14.7482 97.3895 14.4816 98.3417 14.4046L98.9424 14.3478L107.858 13.7758ZM107.458 4.1159C107.458 5.24021 107.053 6.20731 106.244 7.01721C105.435 7.82605 104.468 8.2318 103.343 8.2318C102.201 8.2318 101.229 7.82605 100.428 7.01721C99.6286 6.20731 99.2281 5.24021 99.2281 4.1159C99.2281 2.97301 99.6286 2.00112 100.428 1.20131C101.229 0.400437 102.201 0 103.343 0C104.468 0 105.435 0.400437 106.244 1.20131C107.053 2.00112 107.458 2.97301 107.458 4.1159Z" fill="#0C0F1A"/>
<path d="M124.978 19.3495C126.273 17.5199 127.679 16.1487 129.193 15.2336C130.708 14.3185 132.332 13.8623 134.067 13.8623C135.515 13.8623 136.838 14.2336 138.039 14.9766C139.24 15.7201 140.054 16.6059 140.483 17.6352C140.912 18.6633 141.126 20.1217 141.126 22.007L140.869 33.411C140.869 34.9729 141.012 36.0112 141.298 36.5258C141.584 37.0404 142.184 37.3745 143.098 37.5259C143.861 37.6597 144.241 37.9645 144.241 38.4409C144.241 38.9369 143.87 39.1844 143.127 39.1844C142.498 39.1844 141.117 39.1074 138.983 38.955C138.239 38.9168 137.64 38.8982 137.182 38.8982C136.743 38.8982 135.486 38.9938 133.409 39.1844H132.009C131.227 39.1844 130.837 38.9274 130.837 38.4128C130.837 37.9937 131.189 37.7165 131.894 37.5837C132.542 37.4499 133.056 37.2311 133.437 36.9263C133.819 36.6214 134.07 35.1254 134.195 32.4338C134.318 29.7433 134.381 27.0709 134.381 24.4176C134.381 21.4834 134.148 19.469 133.681 18.3829C133.214 17.2916 132.323 16.7483 131.008 16.7483C129.389 16.7483 127.889 17.9347 126.507 20.307C125.125 22.6794 124.435 26.3232 124.435 31.2389C124.435 33.1444 124.53 34.5252 124.721 35.3829C124.911 36.2406 125.144 36.7791 125.421 36.998C125.697 37.2168 126.283 37.4026 127.178 37.5551C127.713 37.6507 127.979 37.9263 127.979 38.3841C127.979 38.9173 127.588 39.185 126.807 39.185C126.426 39.185 126.007 39.1706 125.55 39.1319C123.721 38.9794 122.73 38.8987 122.577 38.8987C119.834 38.8987 117.586 38.9943 115.833 39.185C115.547 39.2221 115.318 39.2418 115.147 39.2418C114.442 39.2418 114.089 38.9651 114.089 38.4128C114.089 37.9359 114.404 37.6597 115.032 37.5837C116.004 37.4685 116.661 37.2019 117.004 36.7829C117.347 36.3638 117.599 35.0537 117.762 32.8486C117.924 30.6435 118.005 28.0189 118.005 24.9652C118.005 21.0734 117.862 18.6628 117.576 17.7398C117.29 16.8157 116.605 16.1391 115.518 15.7201C114.737 15.4152 114.346 15.1194 114.346 14.8332C114.346 14.377 114.909 14.1475 116.033 14.1475C119.196 14.1475 121.758 14.0243 123.721 13.7763C124.443 15.4338 124.863 17.2916 124.978 19.3495Z" fill="#0C0F1A"/>
<path d="M157.93 14.2617C159.093 14.2049 160.874 14.1768 163.275 14.1768C164.361 14.1768 165.256 14.2724 165.962 14.4619C165.675 15.8911 165.423 16.6537 165.204 16.7483C164.984 16.8439 162.56 17.025 157.93 17.2916L157.616 29.8953C157.616 31.6855 157.707 33.001 157.888 33.8391C158.069 34.6771 158.483 35.3824 159.131 35.9539C159.779 36.5253 160.617 36.8116 161.646 36.8116C162.522 36.8116 163.77 36.3447 165.39 35.4111C165.638 35.2773 165.847 35.2109 166.019 35.2109C166.381 35.2109 166.561 35.4005 166.561 35.7823C166.561 36.3341 165.79 37.0872 164.247 38.0394C162.704 38.9927 160.894 39.4686 158.817 39.4686C156.359 39.4686 154.429 38.8679 153.029 37.6677C151.629 36.4674 150.929 33.9336 150.929 30.0657C150.929 25.7985 151.005 21.5392 151.157 17.2905C149.271 17.2905 147.937 17.2427 147.156 17.1471C146.376 17.0515 145.984 16.7759 145.984 16.3181C145.984 15.9373 146.433 15.6325 147.327 15.403C149.1 15.0037 150.686 14.2798 152.087 13.2309C153.487 12.1831 154.683 10.5165 155.673 8.23021C156.073 7.29656 156.345 6.72936 156.488 6.52915C156.63 6.32893 156.835 6.22961 157.102 6.22961C157.654 6.22961 157.931 6.68688 157.931 7.60087V14.2617H157.93Z" fill="#0C0F1A"/>
<path d="M183.224 36.1833C182.042 37.3065 180.852 38.1499 179.651 38.7123C178.45 39.2747 177.241 39.5557 176.021 39.5557C174.078 39.5557 172.577 38.9693 171.52 37.7972C170.462 36.6209 169.934 35.1971 169.934 33.5151C169.934 32.2198 170.253 31.0567 170.892 30.0381C171.524 29.0131 172.316 28.2229 173.259 27.6604C174.198 27.098 175.75 26.422 177.922 25.6407C179.747 24.9923 180.965 24.483 181.584 24.1064C182.204 23.7352 182.718 23.1924 183.137 22.4781C183.556 21.7638 183.766 20.8392 183.766 19.7011C183.766 18.4483 183.452 17.4472 182.828 16.7005C182.198 15.9527 181.336 15.5762 180.237 15.5762C179.289 15.5762 178.617 15.8136 178.216 16.291C177.821 16.7817 177.516 17.5667 177.307 18.6485C176.869 20.8111 175.697 21.8918 173.791 21.8918C173.01 21.8918 172.343 21.6634 171.791 21.2062C171.238 20.7489 170.962 20.0909 170.962 19.2343C170.962 17.4047 171.957 16.0371 173.949 15.1327C175.939 14.2272 178.317 13.7747 181.079 13.7747C183.46 13.7747 185.399 14.1369 186.895 14.8608C188.39 15.5847 189.348 16.4227 189.767 17.376C190.187 18.3282 190.397 19.8147 190.397 21.8345L190.34 28.609C190.34 32.172 190.459 34.4583 190.697 35.4684C190.936 36.4775 191.445 36.9831 192.226 36.9831C192.341 36.9831 192.493 36.9735 192.684 36.9539C193.064 36.9167 193.321 36.8971 193.455 36.8971C194.236 36.8971 194.626 37.1169 194.626 37.5545C194.626 37.8408 194.464 38.0835 194.141 38.2837C193.817 38.4839 192.84 38.7362 191.211 39.041C189.582 39.3459 188.11 39.4983 186.796 39.4983C185.482 39.4983 184.581 39.2503 184.095 38.7505C183.61 38.2503 183.32 37.3926 183.224 36.1833ZM183.595 24.7225C183.138 25.2796 182.042 26.013 180.308 26.9275C178.727 27.7709 177.669 28.5134 177.136 29.1661C176.603 29.8331 176.336 30.7954 176.336 32.0578C176.336 33.3962 176.616 34.4105 177.179 35.1105C177.741 35.8067 178.431 36.1541 179.251 36.1541C180.356 36.1541 181.385 35.6448 182.338 34.6198C183.29 33.6011 183.766 31.8002 183.766 29.2229C183.766 28.4183 183.709 26.9185 183.595 24.7225Z" fill="#0C0F1A"/>
</g>
<defs>
<clipPath id="clip0_45_331">
<rect width="204" height="94.3158" fill="white"/>
</clipPath>
</defs>
</svg>
