<svg width="204" height="157" viewBox="0 0 204 157" fill="none" xmlns="http://www.w3.org/2000/svg">
<g clip-path="url(#clip0_45_306)">
<path d="M202.181 7.64694C199.587 2.92921 194.635 0 189.255 0H76.9683H76.8988L76.8302 0.0014094C74.9482 0.0347652 73.0624 0.144229 71.1799 0.315706C71.0183 0.3298 70.8567 0.342015 70.6965 0.357518C70.4395 0.382417 70.1835 0.411545 69.9274 0.439263C69.4511 0.489062 68.9752 0.542619 68.4997 0.601344C68.4006 0.614029 68.3015 0.627653 68.2014 0.640338C62.8071 1.33 57.5299 2.57404 52.4448 4.34612L51.0842 4.7929L51.0556 4.84176C41.3777 8.42164 32.428 13.9244 24.7247 21.1467C22.4419 23.2875 20.2644 25.5886 18.2532 27.9874C12.7255 34.5806 8.35446 41.9738 5.25942 49.9623C2.06336 58.2148 0.307249 66.9127 0.0404028 75.815C0.0126846 76.7118 0 77.4677 0 78.1955C0 96.5336 6.48184 114.364 18.2517 128.403L18.4702 128.663L18.4796 128.673C18.886 129.152 19.3135 129.645 19.7532 130.141L19.765 130.153L19.7767 130.166L19.8354 130.232C21.374 131.958 23.024 133.65 24.7242 135.244C32.4266 142.466 41.3772 147.969 51.0541 151.549L51.0828 151.597L52.4325 152.041C55.1099 152.975 57.8409 153.76 60.6146 154.398C60.7926 154.439 60.9716 154.48 61.1506 154.52C61.424 154.581 61.6975 154.642 61.9709 154.7C66.791 155.726 71.6991 156.294 76.6414 156.389L76.7156 156.391H76.7898H189.256C197.386 156.391 204 149.777 204 141.647V14.7447C204 12.267 203.37 9.81319 202.181 7.64694Z" fill="white"/>
<path d="M69.5479 42.0114C51.2652 46.3843 32.9688 47.8666 15.1356 46.7588C8.29864 60.4549 5.86555 76.4375 9.19878 92.4891C32.3942 96.1677 56.6806 95.4517 80.9406 89.6492C105.202 83.8472 127.183 73.4965 146.204 59.722C141.915 43.8986 132.513 30.747 120.219 21.6259C104.817 30.6831 87.8297 37.639 69.5479 42.0114Z" fill="#CCFF00"/>
<path d="M113.107 16.9852C99.1308 24.5866 83.9374 30.4966 67.7204 34.3772C63.5904 35.3642 59.466 36.2052 55.3411 36.9C43.2668 38.939 31.231 39.7423 19.3774 39.3994C27.9043 26.47 40.6735 16.304 56.2897 11.216C58.0937 10.6241 59.9306 10.1073 61.8098 9.6563C66.8888 8.44421 71.9664 7.81468 76.9745 7.72589C77.8582 7.70709 78.7316 7.70709 79.6063 7.72589C91.5533 7.95562 103.039 11.2395 113.107 16.9852Z" fill="#CCFF00"/>
<path d="M141.27 109.63C148.402 95.3338 150.742 78.553 146.739 61.8041C146.57 61.1046 146.392 60.4088 146.203 59.7229C127.181 73.4974 105.199 83.8472 80.9387 89.6492C56.6829 95.4512 32.3942 96.1653 9.2002 92.4868C9.3463 93.1868 9.49617 93.8863 9.6653 94.5868C13.6727 111.34 23.3553 125.246 36.1855 134.765C51.5856 125.707 68.5731 118.754 86.8535 114.379C105.125 110.01 123.409 108.526 141.228 109.63H141.266H141.27Z" fill="#A5CC00"/>
<path d="M137.025 116.992C135.432 119.411 133.689 121.732 131.801 123.94C122.461 134.91 109.683 143.127 94.5924 146.735C89.5144 147.947 84.4358 148.576 79.4278 148.666C78.5497 148.684 77.6707 148.684 76.7969 148.666C69.7353 148.529 62.8339 147.326 56.2901 145.174C51.7654 143.69 47.4109 141.755 43.2954 139.406C47.2135 137.273 51.2308 135.276 55.3416 133.416C58.555 131.959 61.8243 130.592 65.1505 129.314C72.0524 126.661 79.1933 124.391 86.5504 122.545C87.2598 122.361 87.9692 122.188 88.6828 122.018C104.895 118.138 121.122 116.531 137.025 116.992Z" fill="#A5CC00"/>
<path d="M196.281 14.7433V141.646C196.281 145.522 193.138 148.664 189.262 148.664H112.13C119.168 145.272 125.722 140.805 131.562 135.35L131.711 135.218L131.819 135.106L132.637 134.345L132.65 134.312C134.013 132.992 135.333 131.611 136.592 130.201L136.677 130.103L136.681 130.098C137.071 129.661 137.485 129.182 137.969 128.614C138.035 128.534 138.091 128.467 138.148 128.402L144.588 119.504C152.255 107.177 156.399 92.8481 156.399 78.1945C156.399 77.4663 156.386 76.71 156.357 75.8174C156.094 66.9146 154.337 58.2135 151.138 49.9642C148.047 41.9729 143.673 34.5783 138.148 27.987C136.138 25.591 133.958 23.289 131.675 21.1467C125.807 15.6453 119.211 11.1399 112.126 7.72449H189.262C193.137 7.72402 196.281 10.8675 196.281 14.7433Z" fill="#024A72"/>
<path d="M156.248 30.8419L155.91 32.9701C155.75 32.8715 155.595 32.7676 155.426 32.6788C152.621 31.1332 149.3 30.3533 145.555 30.3533C142.032 30.3533 138.739 31.0482 135.765 32.4252C133.185 33.6184 130.963 35.2393 129.126 37.2547L128.558 30.8419H106.623L104.598 35.8406L103.503 38.5471C102.08 36.123 100.032 34.1122 97.4807 32.6929C94.6806 31.1426 91.3596 30.3538 87.6012 30.3538C84.0636 30.3538 80.775 31.0585 77.8153 32.4491C75.8938 33.3511 74.179 34.4974 72.6757 35.874C71.4965 34.6196 70.1105 33.539 68.5461 32.6793C68.4991 32.6558 68.4526 32.6276 68.4052 32.6041C65.6287 31.1102 62.3541 30.3538 58.6709 30.3538C55.1521 30.3538 51.8588 31.0486 48.885 32.4256C45.7937 33.8538 43.2004 35.8974 41.1896 38.5001C40.4614 39.4397 39.8225 40.4357 39.2776 41.4928V41.4975C38.291 43.4053 37.6051 45.4908 37.2386 47.7322L37.2339 47.7557L37.2288 47.7792L34.8516 62.8269L34.8469 62.8504V62.8738C34.2878 66.5383 34.6871 69.9162 36.0261 72.9276C37.4496 76.1363 39.8878 78.7338 43.0829 80.4585C45.9064 81.9802 49.2087 82.7558 52.8971 82.7558C54.3487 82.7558 55.7581 82.6285 57.1253 82.3988C55.4857 84.6914 54.3581 87.2988 53.7709 90.1974C53.7192 90.4652 53.6628 90.7424 53.6206 91.0196L53.6107 91.0713L51.2335 106.118V106.142L51.2236 106.166C50.6693 109.826 51.0639 113.208 52.408 116.219C52.6142 116.684 52.8402 117.14 53.0939 117.577C54.555 120.157 56.7349 122.275 59.4597 123.746C59.6946 123.873 59.9342 123.995 60.1691 124.108C62.838 125.39 65.896 126.039 69.2743 126.039C70.9844 126.039 72.6329 125.874 74.2119 125.55H178.151L177.375 116.845L174.298 82.2672H186.987L188.063 75.5256L193.687 40.0881L195.162 30.8424L156.248 30.8419Z" fill="#024A72"/>
<path d="M68.8193 49.0288C69.1735 46.8598 68.979 44.9825 68.2348 43.3978C67.4907 41.8118 66.3087 40.5762 64.6893 39.6864C63.075 38.7961 61.0657 38.3489 58.6725 38.3489C56.3099 38.3489 54.1643 38.7961 52.2386 39.6864C50.3181 40.5767 48.7372 41.8118 47.5068 43.3978C46.2764 44.9825 45.489 46.8598 45.1282 49.0288L42.7505 64.0766C42.4282 66.2113 42.6232 68.0797 43.3331 69.6789C44.0434 71.2838 45.225 72.5292 46.8787 73.4195C48.5277 74.3097 50.5314 74.7523 52.8954 74.7523C55.2933 74.7523 57.4431 74.3097 59.3542 73.4195C61.2611 72.5292 62.8411 71.2838 64.086 69.6789C65.331 68.0797 66.1146 66.2113 66.4397 64.0766H59.1588C58.9314 65.4672 58.3658 66.5425 57.4576 67.3013C56.5519 68.0647 55.3712 68.4443 53.9167 68.4443C52.458 68.4443 51.3925 68.0647 50.7118 67.3013C50.031 66.5425 49.8069 65.4672 50.031 64.0766L52.4087 49.0288C52.6666 47.6044 53.251 46.5192 54.1606 45.775C55.0645 45.0313 56.247 44.6611 57.7005 44.6611C59.1592 44.6611 60.2248 45.0313 60.9055 45.775C61.5862 46.5192 61.7958 47.6044 61.5378 49.0288H68.8193Z" fill="white"/>
<path d="M97.0416 43.4213C96.3463 41.8221 95.199 40.5762 93.5989 39.6864C91.994 38.7961 89.9945 38.3489 87.6014 38.3489C85.2378 38.3489 83.1124 38.7961 81.2206 39.6864C79.324 40.5767 77.7826 41.8221 76.5803 43.4213C75.3847 45.0271 74.6067 46.8945 74.2506 49.0293L71.8729 64.077C71.5516 66.2118 71.7372 68.0802 72.4315 69.6794C73.1268 71.2842 74.275 72.5297 75.8799 73.4199C77.48 74.3102 79.4593 74.7528 81.8228 74.7528C84.2207 74.7528 86.3555 74.3102 88.2333 73.4199C90.1111 72.5297 91.6529 71.2842 92.8688 69.6794C94.079 68.0802 94.8481 66.2118 95.1736 64.077L97.5522 49.0293C97.9074 46.8941 97.7369 45.0271 97.0416 43.4213ZM90.2713 49.0288L87.8927 64.0766C87.6643 65.4672 87.1292 66.5425 86.2878 67.3013C85.4464 68.0647 84.2987 68.4443 82.8442 68.4443C81.3855 68.4443 80.3491 68.0647 79.7374 67.3013C79.1234 66.5425 78.9298 65.4672 79.153 64.0766L81.5316 49.0288C81.7951 47.6044 82.3345 46.5192 83.1613 45.775C83.9825 45.0313 85.1406 44.6611 86.6289 44.6611C88.1172 44.6611 89.1635 45.0313 89.7606 45.775C90.3586 46.5196 90.5292 47.6044 90.2713 49.0288Z" fill="white"/>
<path d="M124.379 74.0955L124.374 74.018L123.981 69.6024L123.976 69.5582L121.238 38.8351H112.016L97.8488 73.902L97.6985 74.2712H105.319L107.411 68.6045V68.5998L108.277 66.2612H116.724L117.162 74.2708H124.394L124.379 74.0955ZM110.417 60.4347L113.567 51.8444C114.02 50.6159 114.433 49.4038 114.808 48.203C115.177 47.0059 115.479 46.0673 115.703 45.3874C115.737 46.0673 115.795 47.0158 115.873 48.2265C115.955 49.4432 116.014 50.6638 116.043 51.8942L116.384 60.4352L110.417 60.4347Z" fill="white"/>
<path d="M155.699 49.0288C156.056 46.8598 155.861 44.9825 155.117 43.3978C154.373 41.8118 153.191 40.5762 151.572 39.6864C149.957 38.7961 147.948 38.3489 145.555 38.3489C143.191 38.3489 141.046 38.7961 139.121 39.6864C137.199 40.5767 135.618 41.8118 134.389 43.3978C133.158 44.9825 132.37 46.8598 132.01 49.0288L129.632 64.0766C129.31 66.2113 129.505 68.0797 130.215 69.6789C130.93 71.2838 132.107 72.5292 133.761 73.4195C135.41 74.3097 137.413 74.7523 139.777 74.7523C142.174 74.7523 144.324 74.3097 146.235 73.4195C148.141 72.5292 149.723 71.2838 150.967 69.6789C152.213 68.0797 152.996 66.2113 153.322 64.0766H146.042C145.812 65.4672 145.249 66.5425 144.339 67.3013C143.434 68.0647 142.252 68.4443 140.799 68.4443C139.339 68.4443 138.275 68.0647 137.594 67.3013C136.913 66.5425 136.688 65.4672 136.913 64.0766L139.292 49.0288C139.554 47.6044 140.132 46.5192 141.042 45.775C141.947 45.0313 143.129 44.6611 144.583 44.6611C146.042 44.6611 147.107 45.0313 147.787 45.775C148.468 46.5192 148.678 47.6044 148.42 49.0288H155.699Z" fill="white"/>
<path d="M178.511 38.8347L176.326 52.4241H168.175L170.359 38.8347H163.078L157.447 74.2708H164.728L167.105 59.223H175.262L173.769 68.6679L172.883 74.2708H180.164L185.791 38.8347H178.511Z" fill="white"/>
<path d="M85.1993 92.3139C85.5544 90.1505 85.3599 88.2717 84.6158 86.6871C83.8716 85.102 82.6896 83.8608 81.0758 82.9714C80.5501 82.6839 79.9859 82.4406 79.3775 82.247C78.1133 81.8434 76.6677 81.6386 75.0539 81.6386C72.6904 81.6386 70.5457 82.0807 68.6242 82.9714C66.698 83.8612 65.1172 85.102 63.8924 86.6871C63.6345 87.0174 63.3958 87.3627 63.1778 87.7225C62.351 89.0694 61.7962 90.6024 61.5096 92.3134L59.1357 107.362C58.8101 109.496 59.0046 111.369 59.7145 112.969C60.1321 113.908 60.7165 114.73 61.4598 115.426C61.9808 115.911 62.584 116.339 63.26 116.705C64.909 117.595 66.9174 118.042 69.2768 118.042C71.6737 118.042 73.8235 117.595 75.7347 116.705C77.6406 115.814 79.2225 114.57 80.4665 112.97C80.7399 112.614 80.9922 112.25 81.2163 111.875C82.0328 110.533 82.5679 109.03 82.8211 107.363H75.5411C75.3118 108.753 74.7481 109.833 73.8381 110.591C72.9332 111.35 71.7517 111.73 70.2972 111.73C68.8385 111.73 67.7739 111.35 67.0931 110.591C66.4124 109.833 66.1874 108.753 66.4124 107.363L68.7952 92.3144C69.0532 90.8951 69.6366 89.8103 70.5405 89.0657C71.4463 88.322 72.6279 87.9476 74.0814 87.9476C75.5411 87.9476 76.6057 88.322 77.2864 89.0657C77.9671 89.8103 78.1767 90.8951 77.9188 92.3144L85.1993 92.3139Z" fill="white"/>
<path d="M111.019 110.474V110.47L108.495 82.1253H99.2739L87.528 111.189L84.9558 117.555H92.5774L95.1345 110.635L95.539 109.546H103.982L104.026 110.382L104.42 117.556H111.652L111.019 110.474ZM97.6733 103.724L100.825 95.1298C101.278 93.9004 101.691 92.6883 102.065 91.4927C102.435 90.2956 102.737 89.3574 102.965 88.6767C102.994 89.3574 103.053 90.3003 103.131 91.5171C103.213 92.7278 103.272 93.9483 103.301 95.1787L103.642 103.724H97.6733Z" fill="white"/>
<path d="M125.823 110.761L130.385 82.1258H123.105L119.53 104.619V104.624L117.473 117.556H139.076L140.142 110.761H125.823Z" fill="white"/>
<path d="M166.254 82.1258H157.033L142.715 117.556H150.335L153.298 109.546H161.741L162.179 117.556H169.411L166.254 82.1258ZM155.433 103.724L158.584 95.1299C159.042 93.9004 159.45 92.6883 159.825 91.4927C160.195 90.2956 160.496 89.3574 160.72 88.6767C160.754 89.3574 160.812 90.3003 160.889 91.5171C160.973 92.7278 161.031 93.9483 161.06 95.1787L161.4 103.724H155.433Z" fill="white"/>
</g>
<defs>
<clipPath id="clip0_45_306">
<rect width="204" height="156.391" fill="white"/>
</clipPath>
</defs>
</svg>
