<svg width="136" height="136" viewBox="0 0 136 136" fill="none" xmlns="http://www.w3.org/2000/svg">
<path d="M73.6667 42.5H102V53.8333H73.6667V42.5ZM73.6667 82.1667H102V93.5H73.6667V82.1667ZM107.667 17H28.3333C22.1 17 17 22.1 17 28.3333V107.667C17 113.9 22.1 119 28.3333 119H107.667C113.9 119 119 113.9 119 107.667V28.3333C119 22.1 113.9 17 107.667 17ZM107.667 107.667H28.3333V28.3333H107.667V107.667ZM62.3333 34H34V62.3333H62.3333V34ZM56.6667 56.6667H39.6667V39.6667H56.6667V56.6667ZM62.3333 73.6667H34V102H62.3333V73.6667ZM56.6667 96.3333H39.6667V79.3333H56.6667V96.3333Z" fill="black"/>
</svg>
