<svg width="136" height="136" viewBox="0 0 136 136" fill="none" xmlns="http://www.w3.org/2000/svg">
<path d="M54.8532 74.7433L67.9998 64.77L81.0898 74.7433L76.1032 58.5933L89.2498 48.1667H73.1565L67.9998 32.2433L62.8432 48.1667H46.7498L59.8398 58.5933L54.8532 74.7433ZM113.333 53.8333C113.333 28.7867 93.0465 8.5 67.9998 8.5C42.9532 8.5 22.6665 28.7867 22.6665 53.8333C22.6665 65.3367 26.9732 75.7633 33.9998 83.7533V127.5L67.9998 116.167L102 127.5V83.7533C109.027 75.7633 113.333 65.3367 113.333 53.8333ZM67.9998 19.8333C86.7565 19.8333 102 35.0767 102 53.8333C102 72.59 86.7565 87.8333 67.9998 87.8333C49.2432 87.8333 33.9998 72.59 33.9998 53.8333C33.9998 35.0767 49.2432 19.8333 67.9998 19.8333ZM67.9998 104.833L45.3332 110.613V93.0467C52.0198 96.9 59.7265 99.1667 67.9998 99.1667C76.2732 99.1667 83.9798 96.9 90.6665 93.0467V110.613L67.9998 104.833Z" fill="black"/>
</svg>
