<?xml version="1.0" encoding="utf-8"?>
<!-- Generator: Adobe Illustrator 16.0.0, SVG Export Plug-In . SVG Version: 6.00 Build 0)  -->
<!DOCTYPE svg PUBLIC "-//W3C//DTD SVG 1.1//EN" "http://www.w3.org/Graphics/SVG/1.1/DTD/svg11.dtd">
<svg version="1.1" id="Layer_1" xmlns="http://www.w3.org/2000/svg" xmlns:xlink="http://www.w3.org/1999/xlink" x="0px" y="0px"
	 width="345.229px" height="120px" viewBox="0 0 345.229 120" enable-background="new 0 0 345.229 120" xml:space="preserve">
<g>
	<g>
		<g>
			<g>
				<path fill="#FFFFFF" d="M0,0v119.998h33.166V0H0z"/>
			</g>
			<rect x="45.834" y="0.004" fill="#FFFFFF" width="33.182" height="91.668"/>
		</g>
		<rect x="79.018" y="91.672" fill="#FFFFFF" width="28.326" height="28.326"/>
	</g>
	<g>
		<g>
			<path fill="#FFFFFF" d="M127.84,42.374V3.546h8.209v32.028h15.705v6.8H127.84z"/>
			<path fill="#FFFFFF" d="M184.125,27.476c0,4.834-1.271,8.616-3.813,11.345c-2.539,2.724-6.082,4.09-10.623,4.09
				c-2.84,0-5.346-0.626-7.521-1.874c-2.166-1.25-3.836-3.042-5.004-5.382c-1.162-2.334-1.748-5.063-1.748-8.177
				c0-4.846,1.26-8.626,3.787-11.313c2.524-2.694,6.078-4.038,10.649-4.038c2.838,0,5.342,0.624,7.515,1.862
				c2.17,1.239,3.842,3.02,5.006,5.34C183.545,21.646,184.125,24.356,184.125,27.476z M163.658,27.476
				c0,2.942,0.475,5.162,1.446,6.664c0.951,1.509,2.523,2.265,4.695,2.265c2.156,0,3.705-0.75,4.652-2.248
				c0.938-1.496,1.412-3.725,1.412-6.679c0-2.938-0.476-5.14-1.431-6.611c-0.951-1.473-2.516-2.204-4.686-2.204
				c-2.156,0-3.713,0.724-4.664,2.196C164.133,22.31,163.658,24.522,163.658,27.476z M165.35,9.418V8.7
				c3.037-3.542,5.111-6.208,6.226-7.992h9.051v0.556c-0.916,0.92-2.478,2.288-4.691,4.106c-2.221,1.813-3.953,3.162-5.205,4.048
				H165.35L165.35,9.418z"/>
			<path fill="#FFFFFF" d="M207.063,42.91c-3.481,0-6.211-1.271-8.188-3.798h-0.42c0.282,2.474,0.42,3.914,0.42,4.3v12.026h-8.078
				V12.682h6.57l1.137,3.856h0.371c1.893-2.948,4.692-4.414,8.399-4.414c3.494,0,6.229,1.355,8.207,4.07
				c1.978,2.706,2.965,6.466,2.965,11.283c0,3.171-0.463,5.923-1.385,8.259c-0.928,2.336-2.246,4.115-3.961,5.34
				C211.385,42.296,209.367,42.91,207.063,42.91z M204.678,18.606c-1.998,0-3.453,0.615-4.373,1.842
				c-0.918,1.235-1.391,3.26-1.432,6.098v0.876c0,3.19,0.473,5.47,1.422,6.851c0.945,1.378,2.44,2.071,4.488,2.071
				c3.618,0,5.426-2.996,5.426-8.976c0-2.922-0.443-5.114-1.332-6.572C207.985,19.334,206.582,18.606,204.678,18.606z"/>
			<path fill="#FFFFFF" d="M238.52,42.91c-4.77,0-8.494-1.324-11.174-3.96c-2.684-2.634-4.025-6.374-4.025-11.206
				c0-4.977,1.242-8.818,3.722-11.544c2.479-2.71,5.91-4.076,10.289-4.076c4.18,0,7.44,1.2,9.768,3.584
				c2.332,2.396,3.498,5.696,3.498,9.91v3.93h-19.09c0.084,2.302,0.764,4.101,2.033,5.393c1.274,1.292,3.055,1.938,5.354,1.938
				c1.783,0,3.465-0.184,5.058-0.556c1.59-0.37,3.248-0.964,4.981-1.786v6.273c-1.416,0.713-2.926,1.236-4.529,1.58
				C242.787,42.732,240.834,42.91,238.52,42.91z M237.379,17.89c-1.711,0-3.051,0.538-4.025,1.633
				c-0.973,1.09-1.526,2.632-1.67,4.636h11.336c-0.033-2.004-0.555-3.544-1.563-4.636C240.457,18.428,239.092,17.89,237.379,17.89z"
				/>
			<path fill="#FFFFFF" d="M277.768,42.374h-23.385v-4.78l13.721-18.722h-12.897v-6.19h22.084v5.259l-13.347,18.248h13.826v6.186
				L277.768,42.374L277.768,42.374z"/>
		</g>
		<g>
			<path fill="#FFFFFF" d="M127.84,106.936V68.109h8.209v32.031h15.705v6.795H127.84L127.84,106.936z"/>
			<path fill="#FFFFFF" d="M176.651,106.936l-1.569-4.033h-0.209c-1.355,1.716-2.763,2.902-4.197,3.57
				c-1.441,0.664-3.314,0.988-5.627,0.988c-2.844,0-5.082-0.811-6.713-2.438c-1.633-1.633-2.449-3.949-2.449-6.957
				c0-3.148,1.098-5.476,3.295-6.971c2.201-1.5,5.514-2.33,9.941-2.479l5.141-0.164v-1.31c0-3.012-1.535-4.512-4.604-4.512
				c-2.375,0-5.152,0.715-8.345,2.148l-2.682-5.473c3.414-1.785,7.188-2.685,11.338-2.685c3.975,0,7.021,0.875,9.139,2.606
				c2.123,1.736,3.179,4.373,3.179,7.912v19.789L176.651,106.936L176.651,106.936z M174.264,93.176l-3.125,0.109
				c-2.346,0.074-4.096,0.496-5.242,1.27c-1.151,0.785-1.725,1.973-1.725,3.563c0,2.28,1.309,3.43,3.922,3.43
				c1.867,0,3.363-0.543,4.486-1.625c1.119-1.075,1.682-2.512,1.682-4.301L174.264,93.176L174.264,93.176z"/>
			<path fill="#FFFFFF" d="M196.666,91.77l-9.537-14.533h9.166l5.748,9.464l5.799-9.464h9.162l-9.642,14.533l10.091,15.166h-9.189
				l-6.221-10.174l-6.25,10.174h-9.162L196.666,91.77z"/>
			<path fill="#FFFFFF" d="M240.756,106.936l-1.56-4.033h-0.211c-1.362,1.716-2.76,2.902-4.2,3.57
				c-1.438,0.664-3.314,0.988-5.625,0.988c-2.845,0-5.082-0.811-6.716-2.438c-1.637-1.633-2.45-3.949-2.45-6.957
				c0-3.148,1.1-5.476,3.297-6.971c2.196-1.5,5.514-2.33,9.944-2.479l5.138-0.164v-1.31c0-3.012-1.535-4.512-4.609-4.512
				c-2.365,0-5.143,0.715-8.338,2.148l-2.678-5.473c3.412-1.785,7.186-2.685,11.338-2.685c3.969,0,7.018,0.875,9.135,2.606
				c2.117,1.736,3.178,4.373,3.178,7.912v19.789L240.756,106.936L240.756,106.936z M238.375,93.176l-3.127,0.109
				c-2.349,0.074-4.095,0.496-5.244,1.27c-1.146,0.785-1.724,1.973-1.724,3.563c0,2.28,1.312,3.43,3.925,3.43
				c1.869,0,3.362-0.543,4.485-1.625c1.123-1.075,1.683-2.512,1.683-4.301v-2.444h0.002V93.176z"/>
			<path fill="#FFFFFF" d="M280.481,77.236v4.123l-4.631,1.195c0.844,1.327,1.271,2.813,1.271,4.463c0,3.188-1.109,5.67-3.328,7.446
				c-2.211,1.785-5.289,2.668-9.229,2.668l-1.453-0.077l-1.192-0.134c-0.832,0.642-1.246,1.349-1.246,2.125
				c0,1.168,1.481,1.754,4.449,1.754h5.032c3.25,0,5.724,0.699,7.423,2.103c1.707,1.397,2.561,3.453,2.561,6.152
				c0,3.473-1.447,6.168-4.334,8.082c-2.883,1.905-7.027,2.862-12.428,2.862c-4.133,0-7.287-0.724-9.463-2.168
				c-2.187-1.438-3.275-3.461-3.275-6.063c0-1.791,0.557-3.287,1.67-4.486c1.113-1.207,2.744-2.059,4.9-2.578
				c-0.832-0.357-1.554-0.93-2.172-1.738c-0.619-0.809-0.929-1.664-0.929-2.566c0-1.131,0.326-2.071,0.979-2.828
				c0.649-0.75,1.604-1.485,2.834-2.211c-1.551-0.676-2.783-1.754-3.699-3.241c-0.902-1.488-1.361-3.242-1.361-5.255
				c0-3.245,1.054-5.75,3.154-7.518c2.104-1.773,5.104-2.662,9.01-2.662c0.828,0,1.813,0.078,2.945,0.232
				c1.145,0.15,1.873,0.256,2.189,0.32H280.481L280.481,77.236z M257.625,111.133c0,1.117,0.541,1.988,1.604,2.629
				c1.066,0.641,2.564,0.957,4.488,0.957c2.896,0,5.164-0.395,6.805-1.199c1.646-0.789,2.465-1.883,2.465-3.262
				c0-1.113-0.489-1.883-1.456-2.305c-0.976-0.434-2.476-0.639-4.503-0.639h-4.188c-1.479,0-2.717,0.338-3.719,1.041
				C258.125,109.059,257.625,109.98,257.625,111.133z M260.571,86.965c0,1.615,0.365,2.885,1.097,3.824
				c0.738,0.938,1.852,1.406,3.354,1.406c1.515,0,2.627-0.469,3.332-1.406c0.705-0.939,1.062-2.209,1.062-3.824
				c0-3.578-1.469-5.363-4.394-5.363C262.049,81.602,260.571,83.387,260.571,86.965z"/>
			<path fill="#FFFFFF" d="M306.326,106.936l-1.082-3.799h-0.427c-0.862,1.383-2.088,2.451-3.684,3.199
				c-1.584,0.752-3.395,1.129-5.426,1.129c-3.476,0-6.099-0.934-7.863-2.799c-1.768-1.865-2.648-4.553-2.648-8.061V77.24h8.074
				v17.352c0,2.145,0.381,3.748,1.144,4.814c0.762,1.076,1.967,1.609,3.631,1.609c2.258,0,3.893-0.757,4.896-2.269
				c1.002-1.521,1.509-4.021,1.509-7.533V77.24h8.079v29.701h-6.202V106.936z"/>
			<path fill="#FFFFFF" d="M333.155,107.461c-4.766,0-8.489-1.313-11.174-3.953c-2.688-2.641-4.026-6.375-4.026-11.207
				c0-4.973,1.239-8.824,3.719-11.537c2.479-2.725,5.91-4.084,10.291-4.084c4.188,0,7.445,1.199,9.77,3.586
				c2.336,2.391,3.496,5.695,3.496,9.91v3.926h-19.092c0.088,2.303,0.768,4.103,2.041,5.396c1.27,1.291,3.049,1.939,5.355,1.939
				c1.774,0,3.465-0.188,5.055-0.566c1.588-0.365,3.248-0.957,4.975-1.777v6.273c-1.414,0.707-2.918,1.234-4.528,1.582
				C337.428,107.297,335.467,107.461,333.155,107.461z M332.014,82.445c-1.711,0-3.059,0.545-4.021,1.635
				c-0.974,1.092-1.529,2.635-1.67,4.639h11.334c-0.035-2.004-0.558-3.547-1.564-4.639
				C335.086,82.992,333.723,82.445,332.014,82.445z"/>
		</g>
	</g>
</g>
</svg>
