<svg width="136" height="136" viewBox="0 0 136 136" fill="none" xmlns="http://www.w3.org/2000/svg">
<path d="M113.333 51.0001V34.0001H102V51.0001H84.9998V62.3334H102V79.3334H113.333V62.3334H130.333V51.0001H113.333ZM50.9998 68.0001C63.5232 68.0001 73.6665 57.8567 73.6665 45.3334C73.6665 32.8101 63.5232 22.6667 50.9998 22.6667C38.4765 22.6667 28.3332 32.8101 28.3332 45.3334C28.3332 57.8567 38.4765 68.0001 50.9998 68.0001ZM50.9998 34.0001C57.2332 34.0001 62.3332 39.1001 62.3332 45.3334C62.3332 51.5667 57.2332 56.6667 50.9998 56.6667C44.7665 56.6667 39.6665 51.5667 39.6665 45.3334C39.6665 39.1001 44.7665 34.0001 50.9998 34.0001ZM87.2098 82.5067C77.6898 77.6334 65.3365 73.6667 50.9998 73.6667C36.6632 73.6667 24.3098 77.6334 14.7898 82.5067C9.12317 85.3967 5.6665 91.2334 5.6665 97.5801V113.333H96.3332V97.5801C96.3332 91.2334 92.8765 85.3967 87.2098 82.5067ZM84.9998 102H16.9998V97.5801C16.9998 95.4267 18.1332 93.5001 19.9465 92.5934C26.6898 89.1367 37.5698 85.0001 50.9998 85.0001C64.4298 85.0001 75.3098 89.1367 82.0532 92.5934C83.8665 93.5001 84.9998 95.4267 84.9998 97.5801V102Z" fill="black"/>
</svg>
